HIERARCHY
ROOT Hips
{
	OFFSET 0.00000 0.00000 0.00000
	CHANNELS 6 Xposition Yposition Zposition Yrotation Zrotation Xrotation 
	JOINT Lumbar
	{
		OFFSET 0 0 0
		CHANNELS 3 Zrotation Xrotation Yrotation
		JOINT Neck
		{
			OFFSET 0.00 0.2701 0.00
			CHANNELS 3 Zrotation Xrotation Yrotation
			End Site
			{
				OFFSET 0.00 0.1379 0.00
			}
		}
		JOINT RightShoulder
		{
			OFFSET 0.0119 0.2289 0.1181
			CHANNELS 3 Zrotation Xrotation Yrotation
			JOINT RightElbow
			{
				OFFSET 0.00 -0.1475 0.00
				CHANNELS 2 Zrotation Yrotation
				JOINT RightWrist
				{
					OFFSET 0.00 -0.1605 0.00
					CHANNELS 2 Zrotation Xrotation
					End Site
					{
						OFFSET 0.0040 -0.1068 0.0006
					}
				}
			}
		}
		JOINT LeftShoulder
		{
			OFFSET 0.0119 0.2289 -0.1181
			CHANNELS 3 Zrotation Xrotation Yrotation
			JOINT LeftElbow
			{
				OFFSET 0.00 -0.1475 0.00
				CHANNELS 2 Zrotation Yrotation
				JOINT LeftWrist
				{
					OFFSET 0.00 -0.1605 0.00
					CHANNELS 2 Zrotation Xrotation
					End Site
					{
						OFFSET 0.0040 -0.1068 -0.0006
					}
				}
			}
		}
	}
	JOINT RightHip
	{
		OFFSET 0.0316 -0.0424 0.0458
		CHANNELS 3 Zrotation Xrotation Yrotation
		JOINT RightKnee
		{
			OFFSET 0.00 -0.2438 0.00
			CHANNELS 1 Zrotation
			JOINT RightAnkle
			{
				OFFSET 0.00 -0.2449 0.00
				CHANNELS 3 Zrotation Xrotation Yrotation
				End Site
				{
					OFFSET 0.1237 -0.0542 0.0051
				}
			}
		}
	}
	JOINT LeftHip
	{
		OFFSET 0.0316 -0.0424 -0.0458
		CHANNELS 3 Zrotation Xrotation Yrotation
		JOINT LeftKnee
		{
			OFFSET 0.00 -0.2438 0.00
			CHANNELS 1 Zrotation
			JOINT LeftAnkle
			{
				OFFSET 0.00 -0.2449 0.00
				CHANNELS 3 Zrotation Xrotation Yrotation
				End Site
				{
					OFFSET 0.1237 -0.0542 -0.0051
				}
			}
		}
	}
}
MOTION
Frames: 23
Frame Time: 0.02
0.00464 0.57969 0.00745 176.92281 0 -4.36812 2.69021 2.24725 -10.52989 -36.15269 9.92414 4.18731 137.04418 -42.82341 30.64171 137.54162 128.65015 -51.00356 -8.75168 32.0464 11.60099 -18.96549 15.32692 -83.1026 -7.11305 4.42785 -0.59714 7.63627 10.92971 -6.14631 -4.24176 -3.17356 -5.72326 -1.87935 5.33589 2.24702 -7.36061 5.70131 2.44285 0.49217
0.00427 0.57969 0.00794 176.66861 0 -4.40046 2.65171 2.18474 -10.51094 -36.09803 9.97117 4.18946 136.95242 -42.82137 30.34513 137.32519 129.36265 -51.30826 -8.87238 31.06782 10.59695 -17.13155 14.20429 -82.25751 -6.45283 3.77166 -0.59877 7.61806 11.1315 -6.14807 -4.26164 -3.17593 -5.68013 -1.98795 5.31099 2.56123 -7.29968 5.74909 2.4363 0.45975
0.00389 0.57968 0.0084 176.39863 0 -4.43514 2.62269 2.1278 -10.50084 -36.06107 10.02782 4.20183 136.86693 -42.80755 30.02427 137.05712 130.20812 -51.59155 -9.02085 30.0738 9.65974 -14.97544 13.40439 -82.41714 -6.4961 3.10906 -0.59582 7.60545 11.34892 -6.15828 -4.28205 -3.18305 -5.63398 -2.10038 5.29071 2.90113 -7.24056 5.80177 2.42762 0.41746
0.0035 0.57968 0.00886 176.13767 0 -4.46895 2.59061 2.06831 -10.48881 -36.01983 10.08099 4.21241 136.78142 -42.80297 29.73218 136.82774 130.94645 -51.87524 -9.14815 29.08998 8.69968 -13.0192 12.49324 -82.08988 -6.20998 2.46769 -0.59517 7.59075 11.55647 -6.16519 -4.30163 -3.18754 -5.58879 -2.21072 5.26853 3.22304 -7.18125 5.85222 2.42105 0.38367
0.00313 0.57967 0.00934 175.86786 0 -4.50207 2.55362 2.00877 -10.46765 -35.96391 10.13053 4.21138 136.68522 -42.78246 29.36825 136.53601 131.87543 -52.19771 -9.31032 28.07505 7.71413 -10.81885 11.46757 -81.85024 -5.94785 1.74271 -0.59368 7.57435 11.77798 -6.16987 -4.32378 -3.19386 -5.54668 -2.32295 5.24558 3.57281 -7.11914 5.90295 2.40965 0.33297
0.00274 0.57967 0.00979 175.61349 0 -4.53704 2.52902 1.95077 -10.46779 -35.9423 10.18975 4.23659 136.6125 -42.79154 29.14523 136.35924 132.44718 -52.43555 -9.408 27.12946 6.79647 -9.05757 10.74416 -81.68274 -5.80905 1.19233 -0.59279 7.56266 11.97317 -6.18127 -4.34058 -3.19759 -5.49712 -2.43176 5.22526 3.86993 -7.06361 5.95416 2.40779 0.31501
0.00227 0.57967 0.01016 175.40144 0 -4.57751 2.53565 1.89487 -10.52365 -36.01116 10.27464 4.33401 136.60041 -42.89266 29.34028 136.53702 131.92623 -52.43208 -9.30721 26.36231 6.03393 -8.58692 10.77003 -81.4621 -5.84284 1.13149 -0.59518 7.56342 12.09301 -6.20808 -4.34368 -3.19254 -5.42549 -2.53307 5.21175 4.01837 -7.02255 6.00528 2.43296 0.3915
0.00178 0.57967 0.0105 175.20642 0 -4.61956 2.55448 1.8405 -10.60076 -36.11369 10.36865 4.45697 136.612 -43.02263 29.67405 136.82828 131.05339 -52.34618 -9.14283 25.67128 5.3396 -8.57177 11.08494 -81.28627 -5.97851 1.2465 -0.59825 7.56857 12.18534 -6.24156 -4.34116 -3.18482 -5.34676 -2.63023 5.20062 4.1122 -6.98861 6.05669 2.46778 0.50096
0.0013 0.57967 0.01085 175.0063 0 -4.66024 2.56807 1.78592 -10.66891 -36.20062 10.45765 4.5668 136.61436 -43.13449 29.9284 137.05093 130.39197 -52.3068 -9.01685 24.95826 4.62298 -8.35136 11.26681 -81.09981 -6.06683 1.27811 -0.6007 7.57117 12.28918 -6.27265 -4.34041 -3.17865 -5.27241 -2.72739 5.18798 4.22897 -6.95355 6.1081 2.4981 0.59434
0.00081 0.57967 0.0112 174.79414 0 -4.70375 2.58068 1.72942 -10.73481 -36.28962 10.55077 4.68366 136.61066 -43.26688 30.24891 137.34158 129.52413 -52.22981 -8.85291 24.18966 3.87069 -8.11288 11.46829 -80.90647 -6.18234 1.32395 -0.60431 7.57629 12.39766 -6.30129 -4.34298 -3.17121 -5.19271 -2.83268 5.17731 4.35472 -6.90974 6.15924 2.52884 0.69215
0.00034 0.57966 0.01156 174.61171 0 -4.74168 2.59816 1.6773 -10.80985 -36.38186 10.63717 4.79149 136.62489 -43.36369 30.4676 137.52089 128.99293 -52.21015 -8.7511 23.5571 3.20974 -8.0234 11.69247 -80.72529 -6.25814 1.3822 -0.60571 7.57712 12.4899 -6.33655 -4.33729 -3.16576 -5.12302 -2.91996 5.16303 4.44829 -6.88569 6.2108 2.56103 0.7885
-6e-05 0.57966 0.01192 174.50396 0 -4.76411 2.62533 1.63596 -10.90903 -36.47637 10.70429 4.87077 136.68457 -43.35382 30.34733 137.34195 129.54652 -52.38375 -8.8491 23.26596 2.76911 -8.24574 11.91266 -80.56293 -6.18091 1.43074 -0.60099 7.5651 12.54219 -6.38794 -4.31019 -3.16603 -5.07812 -2.95887 5.13836 4.46764 -6.91566 6.26453 2.59489 0.8746
-0.00043 0.57965 0.01229 174.42625 0 -4.78079 2.65704 1.59911 -11.01594 -36.57253 10.76399 4.93956 136.76105 -43.30745 30.12405 137.05134 130.43824 -52.61538 -9.00947 23.11211 2.42064 -8.60173 12.1434 -80.40721 -6.06014 1.486 -0.59403 7.54856 12.57917 -6.44578 -4.27497 -3.16842 -5.04429 -2.97971 5.10991 4.4561 -6.96503 6.31842 2.62986 0.9578
-0.00081 0.57965 0.01266 174.33701 0 -4.79989 2.68713 1.56074 -11.1165 -36.66687 10.82607 5.01133 136.82872 -43.27875 29.96411 136.82761 131.12814 -52.81069 -9.13263 22.90585 2.03948 -8.89057 12.36469 -80.24582 -5.96792 1.53882 -0.58802 7.53404 12.62447 -6.50102 -4.24343 -3.17014 -5.00859 -3.0086 5.08304 4.45779 -7.00474 6.37151 2.66434 1.04117
-0.0012 0.57964 0.01302 174.23933 0 -4.81986 2.71585 1.52016 -11.22953 -36.76712 10.89273 5.09144 136.90239 -43.24652 29.74057 136.54087 132.00589 -53.04455 -9.29038 22.66031 1.62152 -9.22246 12.61525 -80.09716 -5.84275 1.59498 -0.58228 7.51985 12.66372 -6.55525 -4.21167 -3.17066 -4.95983 -3.03806 5.05684 4.4611 -7.04831 6.42773 2.69918 1.13051
-0.00156 0.57964 0.0134 174.1662 0 -4.83664 2.74825 1.48531 -11.31846 -36.85473 10.9479 5.15149 136.96696 -43.21258 29.62157 136.35589 132.58134 -53.21365 -9.39251 22.52791 1.30173 -9.49017 12.80443 -79.92367 -5.77438 1.64375 -0.57547 7.50381 12.71146 -6.61284 -4.17858 -3.17408 -4.94034 -3.06207 5.02833 4.45429 -7.0883 6.4774 2.73332 1.20631
-0.00185 0.57963 0.01381 174.15299 0 -4.84594 2.79023 1.46451 -11.33604 -36.9093 10.97364 5.15715 137.00483 -43.18284 29.82995 136.4914 132.20603 -53.18461 -9.31955 22.6766 1.22582 -9.54888 12.81199 -79.67144 -5.87224 1.66734 -0.56593 7.484 12.7939 -6.6796 -4.14327 -3.18604 -5.00477 -3.07564 4.9941 4.42843 -7.11411 6.50966 2.76592 1.24527
-0.00212 0.57962 0.01423 174.16347 0 -4.85223 2.83558 1.44943 -11.32948 -36.95051 10.98792 5.1431 137.03243 -43.15256 30.14369 136.73022 131.52321 -53.0899 -9.19004 22.93365 1.24616 -9.53575 12.75773 -79.39529 -6.02815 1.683 -0.55547 7.46239 12.8843 -6.74916 -4.10705 -3.20066 -5.09734 -3.0843 4.95769 4.39347 -7.13555 6.5352 2.79762 1.27062
-0.0024 0.57961 0.01465 174.16334 0 -4.85996 2.879 1.43214 -11.33587 -36.99615 11.00709 5.13904 137.06287 -43.12232 30.39985 136.91335 131.00421 -53.02892 -9.09077 23.13915 1.22503 -9.55292 12.73654 -79.13537 -6.15799 1.70341 -0.54564 7.44143 12.96604 -6.81648 -4.07164 -3.21338 -5.17309 -3.09515 4.92244 4.36212 -7.15862 6.56335 2.8292 1.3021
-0.00269 0.5796 0.01507 174.16358 0 -4.86723 2.92433 1.41335 -11.33444 -37.04872 11.02736 5.13048 137.10141 -43.09146 30.69419 137.13002 130.39339 -52.95305 -8.97414 23.35902 1.19717 -9.58579 12.69484 -78.85304 -6.28603 1.71918 -0.53479 7.42107 13.06785 -6.88827 -4.03423 -3.22907 -5.26576 -3.10566 4.88638 4.33198 -7.18376 6.59335 2.86295 1.33357
-0.00295 0.5796 0.01549 174.16832 0 -4.87477 2.96631 1.39903 -11.34316 -37.08373 11.04269 5.12648 137.1207 -43.06254 30.93444 137.3022 129.89868 -52.89244 -8.87984 23.57315 1.20545 -9.56603 12.68108 -78.61166 -6.43096 1.74281 -0.52592 7.39904 13.13078 -6.95116 -4.00092 -3.23919 -5.33036 -3.11581 4.85147 4.29742 -7.20344 6.61792 2.89207 1.36204
-0.00316 0.5796 0.0159 174.17932 0 -4.88407 2.99922 1.39514 -11.38832 -37.07303 11.04734 5.14198 137.08663 -43.03654 31.00844 137.33237 129.77756 -52.88455 -8.857 23.74216 1.2862 -9.42499 12.75927 -78.48935 -6.61903 1.78874 -0.52249 7.37341 13.07702 -6.99011 -3.9787 -3.23324 -5.30484 -3.12755 4.82103 4.25438 -7.20766 6.62896 2.90753 1.38394
-0.00334 0.57961 0.01633 174.19407 0 -4.89371 3.02844 1.39563 -11.44406 -37.04522 11.04736 5.16236 137.03394 -43.01318 31.02378 137.31403 129.78507 -52.89478 -8.85878 23.90166 1.40072 -9.23053 12.86827 -78.4095 -6.82055 1.84339 -0.52117 7.34608 12.98506 -7.01973 -3.96075 -3.22163 -5.25102 -3.13892 4.79171 4.20708 -7.20668 6.63476 2.91852 1.40351
